# xmcd CD database file
#
# Track frame offsets:
#	150
#	27103
#	61234
#	85347
#	118539
#	147848
#	166111
#	192381
#	210892
#	238073
#	264046
#
# Disc length: 3695 seconds
#
# Revision: 0
# Processed by: cddbd v1.5.2PL0 Copyright (c) Steve Scherf et al.
# Submitted via: CDex 1.70beta2
#
DISCID=870e6d0b
DTITLE=BOMATA - BOMATA
DYEAR=2008
DGENRE=Jazz
TTITLE0=Pas de geant
TTITLE1=La Balançoire
TTITLE2=Akapou
TTITLE3=Trois
TTITLE4=Trampoline
TTITLE5=Arabesque
TTITLE6=Saut a la corde
TTITLE7=Sahara
TTITLE8=Iz
TTITLE9=Naha
TTITLE10=Jacques
EXTD=YEAR: 2008
EXTT0=
EXTT1=
EXTT2=
EXTT3=
EXTT4=
EXTT5=
EXTT6=
EXTT7=
EXTT8=
EXTT9=
EXTT10=
PLAYORDER=
